<svg xmlns="http://www.w3.org/2000/svg" viewBox="0 0 228.91 180.81"><defs><style>.cls-1{fill:#232323;}</style></defs><g id="Layer_2" data-name="Layer 2"><g id="Layer_1-2" data-name="Layer 1"><path class="cls-1" d="M43.1,180.81a6,6,0,0,1-5.66-4L.34,71.12a6,6,0,0,1,5.57-8l100.42-1.6h.1a6,6,0,0,1,5.66,4l37.1,105.67a6,6,0,0,1-5.57,8L43.2,180.8ZM14.42,75l32.91,93.74,87.78-1.4L102.2,73.6Z"/><path class="cls-1" d="M143.53,179.21a5.83,5.83,0,0,1-1.7-.25,6,6,0,0,1-4-3.76L100.77,69.52a6,6,0,0,1,2-6.73L182.13,1.26A6,6,0,0,1,191.47,4l37.1,105.68a6,6,0,0,1-2,6.73L147.2,178A6,6,0,0,1,143.53,179.21Zm-30-109.58,32.91,93.74,69.39-53.78L182.91,15.84Z"/><path class="cls-1" d="M6,75.13A6,6,0,0,1,2.31,64.4L81.55,2.47A6,6,0,0,1,85.17,1.2L185.74,0h.07a6,6,0,0,1,.07,12L87.34,13.18,9.69,73.86A6,6,0,0,1,6,75.13Z"/><path class="cls-1" d="M79.49,113.64c4.7,3.17,6.83,8.23,3.67,12.93s-8.65,4.62-13.35,1.46-6.84-8.21-3.68-12.92S74.78,110.48,79.49,113.64Z"/><path class="cls-1" d="M152.48,79.94c0,5.66-3.08,10.24-8.75,10.2s-8.63-4.65-8.59-10.32,3.06-10.24,8.73-10.2S152.52,74.27,152.48,79.94Z"/><path class="cls-1" d="M177.32,88.59c.09,5.66-2.84,10.31-8.51,10.4s-8.74-4.46-8.83-10.12,2.83-10.31,8.5-10.41S177.23,82.92,177.32,88.59Z"/><path class="cls-1" d="M184.09,53.27c0,5.67-3.08,10.25-8.74,10.21s-8.64-4.65-8.6-10.32,3.07-10.25,8.73-10.21S184.13,47.61,184.09,53.27Z"/><path class="cls-1" d="M167.73,123.38c0,5.67-3.07,10.25-8.74,10.21s-8.63-4.65-8.6-10.32,3.07-10.24,8.74-10.21S167.77,117.72,167.73,123.38Z"/><path class="cls-1" d="M201.08,97.88c0,5.67-3.08,10.24-8.74,10.21s-8.64-4.66-8.6-10.32,3.07-10.25,8.73-10.21S201.12,92.21,201.08,97.88Z"/><path class="cls-1" d="M97.54,40.48c5.33-1.93,10.55-1,12.25,3.68s-1.74,8.72-7.07,10.65-10.54,1-12.24-3.68S92.21,42.4,97.54,40.48Z"/><path class="cls-1" d="M125.48,18.73c5.33-1.92,10.55-1,12.25,3.69s-1.74,8.72-7.07,10.64-10.55,1-12.24-3.67S120.15,20.66,125.48,18.73Z"/><path class="cls-1" d="M89.55,19c5.33-1.92,10.55-1,12.24,3.69s-1.73,8.72-7.06,10.65-10.55,1-12.24-3.68S84.22,20.89,89.55,19Z"/><path class="cls-1" d="M62,41c5.33-1.93,10.55-1,12.24,3.68s-1.73,8.72-7.06,10.65-10.55,1-12.24-3.68S56.66,43,62,41Z"/></g></g></svg>