<svg xmlns="http://www.w3.org/2000/svg" viewBox="0 0 228.91 180.8" style="fill: currentColor"><defs><style>.cls-1{fill:none;stroke:#000;stroke-linecap:round;stroke-linejoin:round;stroke-width:12px;}</style></defs><g id="Layer_2" data-name="Layer 2"><g id="Layer_1-2" data-name="Layer 1"><polygon class="cls-1" points="6 69.13 106.43 67.53 143.53 173.21 43.1 174.81 6 69.13"/><polygon class="cls-1" points="185.81 6 106.43 67.53 143.53 173.21 222.91 111.68 185.81 6"/><polyline class="cls-1" points="6 69.13 85.25 7.2 185.81 6"/><path d="M79.49,113.64c4.7,3.17,6.83,8.23,3.67,12.93s-8.65,4.62-13.35,1.46-6.85-8.21-3.68-12.92S74.78,110.48,79.49,113.64Z"/><path d="M152.48,79.94c0,5.66-3.08,10.24-8.75,10.2s-8.63-4.65-8.59-10.32,3.06-10.24,8.73-10.2S152.52,74.27,152.48,79.94Z"/><path d="M177.32,88.58c.09,5.67-2.84,10.31-8.51,10.41s-8.74-4.46-8.83-10.12,2.83-10.31,8.5-10.41S177.23,82.92,177.32,88.58Z"/><path d="M184.09,53.27c0,5.67-3.08,10.24-8.74,10.21s-8.64-4.66-8.6-10.32,3.06-10.25,8.73-10.21S184.13,47.6,184.09,53.27Z"/><path d="M167.73,123.38c0,5.67-3.07,10.25-8.74,10.21s-8.63-4.65-8.6-10.32,3.07-10.25,8.73-10.21S167.77,117.72,167.73,123.38Z"/><path d="M201.08,97.88c0,5.67-3.08,10.24-8.74,10.21s-8.64-4.66-8.6-10.32,3.06-10.25,8.73-10.21S201.12,92.21,201.08,97.88Z"/><path d="M97.54,40.48c5.33-1.93,10.55-1,12.25,3.68s-1.74,8.72-7.07,10.65-10.55,1-12.24-3.68S92.21,42.4,97.54,40.48Z"/><path d="M125.48,18.73c5.33-1.92,10.55-1,12.24,3.69s-1.73,8.72-7.06,10.64-10.55,1-12.24-3.67S120.15,20.66,125.48,18.73Z"/><path d="M89.55,19c5.33-1.92,10.55-1,12.24,3.69s-1.73,8.72-7.06,10.64-10.55,1-12.24-3.67S84.22,20.89,89.55,19Z"/><path d="M62,41c5.33-1.92,10.55-1,12.24,3.69s-1.73,8.72-7.07,10.65-10.54,1-12.23-3.68S56.66,43,62,41Z"/></g></g></svg>